#!OML:ASF H:\Terrain\Patient Classification 1\Walking\liu\liu.ASF
:FULLY-SPECIFIED
:DEGREES
63
root 7.37203 16.2524 -23.0649 5.78221 -2.95855 -6.59396
lowerback -4.09829 1.66324 2.73808
upperback -0.894243 2.03416 4.27564
thorax 1.31749 1.0219 2.97065
lowerneck -23.1775 -2.84176 -11.9614
upperneck 19.2715 -2.15221 9.6748
head 10.2098 -0.720572 5.1352
rclavicle -3.73964e-015 -2.22639e-014
rhumerus -24.6051 24.3409 -85.3451
rradius 31.5727
rwrist -8.88167
rhand -30.2333 -14.4537
rfingers 7.12502
rthumb -3.54272 -44.404
lclavicle -3.73964e-015 -2.22639e-014
lhumerus -44.4945 -4.57062 88.5279
lradius 18.0112
lwrist -5.93312
lhand -21.7226 -41.7172
lfingers 7.12502
lthumb 4.67662 -11.7888
rfemur 3.58832 4.1575 31.4273
rtibia 15.023
rfoot -14.0114 4.21386
rtoes -15.1589
lfemur -39.304 8.47545 -14.724
ltibia 30.2964
lfoot -10.6085 10.5031
ltoes -10.8846
64
root 7.39458 16.246 -22.8777 5.90648 -3.11561 -7.03079
lowerback -4.04746 1.75935 3.20219
upperback -0.933567 2.14603 4.3635
thorax 1.25861 1.07857 2.805
lowerneck -22.9431 -2.88013 -12.0636
upperneck 18.9287 -2.16839 9.62186
head 10.0476 -0.741822 5.11566
rclavicle -2.22515e-014 -8.34896e-015
rhumerus -23.5453 24.3469 -84.8261
rradius 34.5544
rwrist -11.4289
rhand -27.6368 -27.0954
rfingers 7.12502
rthumb -1.03511 -57.0726
lclavicle -2.22515e-014 -8.34896e-015
lhumerus -44.8921 -2.79618 87.0376
lradius 16.8652
lwrist -7.19527
lhand -11.5346 -24.3429
lfingers 7.12502
lthumb 14.5055 5.13006
rfemur 4.98242 3.86941 31.6796
rtibia 13.4277
rfoot -13.1118 4.66998
rtoes -15.2706
lfemur -39.0524 6.75063 -13.1268
ltibia 27.0621
lfoot -10.3596 10.3453
ltoes -9.48169
65
root 7.41815 16.2526 -22.6856 6.0666 -3.3137 -7.19755
lowerback -4.158 1.837 3.33256
upperback -0.924145 2.23532 4.42361
thorax 1.33048 1.12374 2.80351
lowerneck -22.9394 -2.87726 -12.2718
upperneck 18.8098 -2.1182 9.75243
head 10.0022 -0.717022 5.20245
rclavicle -2.17421e-014 -2.38542e-014
rhumerus -22.7037 25.0691 -84.4826
rradius 34.9783
rwrist -11.7327
rhand -29.2029 -24.3008
rfingers 7.12502
rthumb -2.54767 -54.2653
lclavicle -2.17421e-014 -2.38542e-014
lhumerus -45.0329 0.226988 84.4657
lradius 15.6133
lwrist -11.2701
lhand -10.2439 -24.5096
lfingers 7.12502
lthumb 15.7487 4.86971
rfemur 6.44686 3.91729 31.6752
rtibia 11.6497
rfoot -12.0445 4.85102
rtoes -15.6614
lfemur -38.8381 4.65997 -11.5529
ltibia 24.1963
lfoot -10.3626 10.5262
ltoes -8.42401
66
root 7.43855 16.2721 -22.4903 6.11217 -3.60825 -6.91247
lowerback -4.30361 1.95336 3.04201
upperback -0.730058 2.38672 4.24846
thorax 1.60404 1.19981 2.80341
lowerneck -23.3284 -2.9108 -12.2134
upperneck 18.7965 -2.18168 9.94083
head 10.077 -0.711341 5.25707
rclavicle 2.19657e-014 -2.26615e-014
rhumerus -21.6901 25.5653 -84.1853
rradius 35.7224
rwrist -12.5581
rhand -29.7958 -23.7291
rfingers 7.12502
rthumb -3.12026 -53.686
lclavicle 2.19657e-014 -2.26615e-014
lhumerus -45.0802 2.98839 81.7275
lradius 14.5958
lwrist -15.5794
lhand -9.53589 -24.6802
lfingers 7.12502
lthumb 16.4305 4.64395
rfemur 8.10022 4.20445 31.2179
rtibia 9.6361
rfoot -10.9229 4.78359
rtoes -16.6656
lfemur -38.5285 2.22531 -10.2359
ltibia 21.7473
lfoot -10.6404 11.6729
ltoes -9.64277
67
root 7.46308 16.2761 -22.2924 6.07967 -3.76032 -6.70409
lowerback -4.29595 2.12458 2.97231
upperback -0.59786 2.61675 3.98045
thorax 1.73942 1.31539 2.58137
lowerneck -23.6091 -3.05903 -12.0341
upperneck 18.7768 -2.45496 10.0997
head 10.1554 -0.798803 5.24706
rclavicle -2.20154e-014 -2.62396e-014
rhumerus -20.9951 25.5777 -83.9449
rradius 36.7964
rwrist -13.3285
rhand -30.0163 -24.0305
rfingers 7.12502
rthumb -3.33317 -53.9842
lclavicle -2.20154e-014 -2.62396e-014
lhumerus -45.3656 5.54941 78.7162
lradius 13.8484
lwrist -20.4299
lhand -9.01642 -25.2008
lfingers 7.12502
lthumb 16.9306 4.08126
rfemur 10.0554 4.35334 30.8593
rtibia 7.16777
rfoot -9.883 4.55765
rtoes -17.3167
lfemur -38.3557 -0.436507 -8.74502
ltibia 19.7883
lfoot -12.1293 13.1995
ltoes -8.90179
68
root 7.4909 16.264 -22.0905 6.05388 -3.86033 -6.91405
lowerback -4.28018 2.23469 3.25844
upperback -0.528108 2.74849 3.90665
thorax 1.81663 1.38335 2.35462
lowerneck -23.6739 -3.0906 -11.5934
upperneck 18.6854 -2.58518 9.86335
head 10.1411 -0.851584 5.06221
rclavicle 4.45278e-014 5.00937e-014
rhumerus -20.3975 25.6678 -83.695
rradius 37.7722
rwrist -13.8861
rhand -30.109 -24.4228
rfingers 7.12502
rthumb -3.42273 -54.375
lclavicle 4.45278e-014 5.00937e-014
lhumerus -45.8991 6.73549 77.2255
lradius 13.1283
lwrist -20.9137
lhand -9.41665 -24.3148
lfingers 7.12502
lthumb 16.5453 4.99986
rfemur 12.6754 4.48557 30.9861
rtibia 3.44247
rfoot -8.11954 4.12845
rtoes -18.4965
lfemur -38.4092 -3.28408 -6.65023
ltibia 18.4344
lfoot -13.6035 14.904
ltoes -6.66593
69
root 7.51539 16.2537 -21.886 6.05202 -4.08177 -7.21526
lowerback -4.36981 2.29283 3.52201
upperback -0.438448 2.80158 3.95797
thorax 1.96854 1.41235 2.27111
lowerneck -23.5517 -3.0134 -11.1851
upperneck 18.4639 -2.53339 9.48967
head 10.0222 -0.842084 4.8545
rclavicle 4.84538e-015 -1.27222e-014
rhumerus -19.7444 26.0722 -83.4479
rradius 38.6158
rwrist -14.6273
rhand -30.6156 -25.0389
rfingers 7.12502
rthumb -3.91194 -54.9828
lclavicle 4.84538e-015 -1.27222e-014
lhumerus -46.5087 9.57107 74.403
lradius 12.1058
lwrist -23.9939
lhand -9.64904 -24.3978
lfingers 7.12502
lthumb 16.3216 4.93536
rfemur 15.1514 4.74812 31.2107
rtibia -2.8625e-014
rfoot -5.91122 3.75807
rtoes -19.6183
lfemur -38.5954 -5.7057 -4.65048
ltibia 17.6596
lfoot -13.0084 16.8093
ltoes -9.83185
70
root 7.53904 16.2485 -21.6803 6.12601 -4.24341 -7.38863
lowerback -4.46333 2.40239 3.70128
upperback -0.540935 2.93748 3.98278
thorax 1.9212 1.4806 2.20672
lowerneck -22.956 -2.94041 -11.1393
upperneck 18.2344 -2.49248 9.44804
head 9.82816 -0.834746 4.82523
rclavicle -2.41772e-014 2.42517e-014
rhumerus -19.5406 26.2617 -83.2055
rradius 39.4511
rwrist -15.3021
rhand -31.2471 -25.2474
rfingers 7.12502
rthumb -4.52173 -55.1791
lclavicle -2.41772e-014 2.42517e-014
lhumerus -47.6779 13.4816 70.2277
lradius 10.9405
lwrist -29.381
lhand -9.99071 -24.7402
lfingers 7.12502
lthumb 15.9926 4.61963
rfemur 15.8469 4.95852 31.2679
rtibia 1.90833e-014
rfoot -5.34495 3.78417
rtoes -19.5909
lfemur -38.86 -6.79042 -3.64479
ltibia 17.3269
lfoot -12.6998 17.6587
ltoes -12.856
71
root 7.56306 16.2388 -21.4718 6.2449 -4.34441 -7.50658
lowerback -4.62017 2.51792 3.784
upperback -0.59984 3.07958 4.00254
thorax 1.95004 1.5519 2.19616
lowerneck -22.4656 -2.95345 -11.1426
upperneck 17.8861 -2.53694 9.41071
head 9.62273 -0.866591 4.79083
rclavicle 4.84538e-015 -1.98785e-015
rhumerus -19.157 26.1897 -82.8932
rradius 40.08
rwrist -15.6913
rhand -31.7111 -25.6711
rfingers 7.12502
rthumb -4.96974 -55.5928
lclavicle 4.84538e-015 -1.98785e-015
lhumerus -49.1298 17.2647 65.8911
lradius 10.085
lwrist -34.7194
lhand -10.0632 -24.6527
lfingers 7.12502
lthumb 15.9228 4.71272
rfemur 16.5655 5.12063 31.245
rtibia -1.90833e-014
rfoot -5.00217 3.85306
rtoes -18.5974
lfemur -39.0744 -6.19414 -3.82751
ltibia 17.3648
lfoot -13.4461 17.1612
ltoes -12.1024
72
root 7.58918 16.2249 -21.2589 6.30382 -4.4009 -7.61916
lowerback -4.81244 2.58395 3.81538
upperback -0.487842 3.14599 4.03614
thorax 2.17249 1.587 2.23184
lowerneck -22.5275 -3.05399 -11.1427
upperneck 17.6732 -2.64961 9.37414
head 9.57171 -0.919669 4.75512
rclavicle -2.04748e-014 -4.37326e-014
rhumerus -18.442 26.0633 -82.522
rradius 40.6603
rwrist -16.0852
rhand -31.7369 -26.1067
rfingers 7.12502
rthumb -4.99466 -56.0278
lclavicle -2.04748e-014 -4.37326e-014
lhumerus -49.3401 17.587 65.6464
lradius 9.46849
lwrist -34.9155
lhand -10.3538 -24.1941
lfingers 7.12502
lthumb 15.6429 5.19344
rfemur 17.4099 5.24051 31.1731
rtibia 1.59028e-014
rfoot -4.78953 3.97753
rtoes -17.3463
lfemur -39.1343 -4.95611 -4.54031
ltibia 17.5906
lfoot -13.4935 16.3421
ltoes -12.2972
73
root 7.62034 16.2031 -21.043 6.31611 -4.23946 -7.73636
lowerback -4.96251 2.57142 3.91727
upperback -0.45391 3.11033 4.08373
thorax 2.29476 1.57076 2.23117
lowerneck -22.6415 -3.12962 -11.4229
upperneck 17.8063 -2.71298 9.62639
head 9.65431 -0.938808 4.88957
rclavicle -4.69629e-015 -2.78299e-014
rhumerus -17.8031 25.9404 -82.1917
rradius 41.1002
rwrist -16.5412
rhand -31.5536 -24.6459
rfingers 7.12502
rthumb -4.81768 -54.5711
lclavicle -4.69629e-015 -2.78299e-014
lhumerus -49.613 17.8445 65.3482
lradius 8.75473
lwrist -35.3378
lhand -10.6178 -23.9403
lfingers 7.12502
lthumb 15.3886 5.46695
rfemur 18.1811 5.13679 31.1509
rtibia -1.59028e-014
rfoot -4.54277 4.10883
rtoes -18.0401
lfemur -39.0957 -3.63616 -5.41099
ltibia 17.9519
lfoot -13.3624 14.8488
ltoes -11.4644
